<?xml version="1.0" encoding="utf-8"?>
<!-- Generator: Adobe Illustrator 25.4.1, SVG Export Plug-In . SVG Version: 6.00 Build 0)  -->
<svg version="1.1" id="Expanded" xmlns="http://www.w3.org/2000/svg" xmlns:xlink="http://www.w3.org/1999/xlink" x="0px" y="0px"
	 viewBox="0 0 241.2 50" style="enable-background:new 0 0 241.2 50;" xml:space="preserve">
<style type="text/css">
	.st0{fill:#00297A;}
</style>
<g>
	<path class="st0" d="M114.2,28.2l3.2-0.9c-0.3,5.4,1.7,7.8,4.9,7.8c3.6,0,5-2.7,5-7.3V6h3.1v22.3c0,6.3-2.5,9.8-8.1,9.8
		C117.2,38.1,114.1,34.5,114.2,28.2z"/>
	<path class="st0" d="M136.6,31.9c0-6,6.8-8.4,14.3-8.9v-0.9c0-2.8-1.6-4.7-5.4-4.7c-4.2,0-5.7,2.2-6.4,4.2l-2.9-1.1
		c0.8-2.7,3.6-5.9,9.4-5.9c5.9,0,8.4,3.2,8.4,7.5V33c0,1.4,0.5,1.8,1.7,1.8h2.2v2.7h-2.5c-3,0-3.9-1.3-4-3.9
		c-1.6,2.8-3.9,4.5-7.6,4.5C139.3,38.1,136.6,35.8,136.6,31.9z M150.9,27.9v-2.6c-6.1,0.5-11.2,2.3-11.2,6.3c0,2.3,1.5,3.8,4.5,3.8
		C147.4,35.5,150.9,33.3,150.9,27.9z"/>
	<path class="st0" d="M161.4,15.3h2.9v3.9c1.1-2.2,3.5-4.5,7.4-4.5c4.9,0,9.1,4,9.1,11.7c0,7.6-4.2,11.7-9.1,11.7
		c-4,0-6.3-2.4-7.3-4.5v4.3v8.3h-3L161.4,15.3L161.4,15.3z M177.8,26.3c0-6.5-3-9-6.7-9c-3.9,0-6.8,2.8-6.8,9c0,6.1,3,9.1,6.8,9.1
		C174.8,35.4,177.8,32.8,177.8,26.3z"/>
	<path class="st0" d="M185,31.9c0-6,6.8-8.4,14.3-8.9v-0.9c0-2.8-1.6-4.7-5.4-4.7c-4.2,0-5.7,2.2-6.4,4.2l-2.9-1.1
		c0.8-2.7,3.6-5.9,9.4-5.9c5.9,0,8.4,3.2,8.4,7.5V33c0,1.4,0.5,1.8,1.7,1.8h2.2v2.7h-2.5c-3,0-3.9-1.3-4-3.9
		c-1.6,2.8-3.9,4.5-7.6,4.5C187.8,38.1,185,35.8,185,31.9z M199.3,27.9v-2.6c-6.1,0.5-11.2,2.3-11.2,6.3c0,2.3,1.5,3.8,4.5,3.8
		C195.8,35.5,199.3,33.3,199.3,27.9z"/>
	<path class="st0" d="M209.9,15.3h2.9v4.1c0.3-1.2,2.6-4.8,7.5-4.8c5.6,0,7.9,3.7,7.9,8.6v14.2h-3V24c0-4.6-2.2-6.7-5.6-6.7
		c-6.3,0-6.8,6.6-6.8,10v10.1h-3V15.3H209.9z"/>
</g>
<g id="Logo_1_">
	<g>
		<path class="st0" d="M24.2,13.9c-6.5,0-11.8,5.3-11.8,11.8s5.3,11.8,11.8,11.8S36,32.2,36,25.7S30.7,13.9,24.2,13.9z M24.2,31.5
			c-3.3,0-5.8-2.6-5.8-5.8s2.6-5.8,5.8-5.8s5.8,2.6,5.8,5.8S27.5,31.5,24.2,31.5z"/>
		<path class="st0" d="M44.9,29.6c0-0.9,1.1-1.4,1.8-0.8c3,3,7.8,8.1,7.8,8.2c0.1,0.1,0.1,0.2,0.4,0.3c0.1,0.1,0.3,0.1,0.5,0.1h5.3
			c0.9,0,1.3-1.1,0.8-1.6l-8.8-9.1l-0.4-0.5c-1-1.2-0.9-1.6,0.3-2.9l7-7.7C60,15,59.8,14,58.8,14H54c-0.2,0-0.3,0-0.4,0.1
			c-0.3,0.1-0.4,0.2-0.4,0.3c0,0-3.9,4.1-6.2,6.7c-0.6,0.7-1.8,0.3-1.8-0.7V6.9c0-0.7-0.6-0.9-1-0.9H40c-0.7,0-1,0.4-1,0.9v29.6
			c0,0.7,0.6,0.9,1,0.9h3.8c0.6,0,1-0.4,1-0.9v-0.3v-6.6H44.9z"/>
		<path class="st0" d="M76.9,36.3l-0.4-4c-0.1-0.6-0.6-0.9-1.1-0.8c-0.3,0.1-0.6,0.1-0.9,0.1c-3.1,0-5.7-2.5-5.8-5.5
			c0-0.1,0-0.2,0-0.3V21c0-0.6,0.4-1.1,1.1-1.1H75c0.4,0,0.9-0.3,0.9-1v-3.7c0-0.7-0.4-1.1-0.9-1.1h-5.3c-0.6,0-1.1-0.4-1.1-1.1V7
			c0-0.4-0.3-0.9-1-0.9h-3.9c-0.5,0-0.9,0.3-0.9,0.9c0,0,0,19,0,19.1c0.2,6.4,5.3,11.4,11.8,11.4c0.5,0,1.1-0.1,1.6-0.1
			C76.6,37.3,76.9,36.8,76.9,36.3z"/>
		<path class="st0" d="M105.2,31.4c-3.3,0-3.8-1.2-3.8-5.7c0,0,0,0,0-0.1V15c0-0.4-0.3-1-1-1h-3.9c-0.5,0-1,0.4-1,1v0.5
			c-1.7-0.9-3.7-1.5-5.8-1.5c-6.5,0-11.8,5.3-11.8,11.8s5.3,11.8,11.8,11.8c2.9,0,5.6-1.1,7.6-2.8c1.1,1.7,2.9,2.8,5.7,2.8
			c0.5,0,3,0.1,3-1.1v-4.1C105.9,31.8,105.5,31.4,105.2,31.4z M89.6,31.5c-3.3,0-5.8-2.6-5.8-5.8c0-3.3,2.6-5.8,5.8-5.8
			c3.3,0,5.8,2.6,5.8,5.8C95.5,28.9,92.8,31.5,89.6,31.5z"/>
	</g>
</g>
</svg>
